<svg width="4710" height="1141" viewBox="0 0 4710 1141" fill="none" xmlns="http://www.w3.org/2000/svg">
<circle cx="437.091" cy="437.091" r="392.081" stroke="#043C8F" stroke-width="90.0186"/>
<circle cx="3031.63" cy="603.136" r="231.048" stroke="#043C8F" stroke-width="80.0166"/>
<path fill-rule="evenodd" clip-rule="evenodd" d="M1407.18 545.094C1391.77 469.21 1324.68 412.096 1244.25 412.096C1163.82 412.096 1096.73 469.21 1081.32 545.094H1000.2C1016.44 424.81 1119.52 332.08 1244.25 332.08C1368.98 332.08 1472.06 424.81 1488.3 545.094H1407.18ZM997.982 580.423V576.288C997.977 576.977 997.974 577.666 997.974 578.356C997.974 579.046 997.977 579.735 997.982 580.423Z" fill="#043C8F"/>
<path d="M1000.15 543.992H1081.54V833.575C1081.54 856.05 1063.32 874.269 1040.84 874.269V874.269C1018.37 874.269 1000.15 856.05 1000.15 833.575V543.992Z" fill="#043C8F"/>
<path d="M1407.09 543.992H1488.22V833.706C1488.22 856.108 1470.05 874.269 1447.65 874.269V874.269C1425.25 874.269 1407.09 856.108 1407.09 833.706V543.992Z" fill="#043C8F"/>
<path fill-rule="evenodd" clip-rule="evenodd" d="M3481.83 661.152C3497.24 737.035 3564.33 794.147 3644.76 794.147C3725.19 794.147 3792.28 737.035 3807.69 661.152L3888.81 661.152C3872.57 781.434 3769.5 874.164 3644.76 874.164C3520.03 874.164 3416.95 781.434 3400.71 661.152L3481.83 661.152ZM3891.03 625.853L3891.03 629.922C3891.04 629.245 3891.04 628.567 3891.04 627.888C3891.04 627.209 3891.04 626.531 3891.03 625.853Z" fill="#043C8F"/>
<rect x="3888.89" y="662.133" width="81.3878" height="330.014" transform="rotate(180 3888.89 662.133)" fill="#043C8F"/>
<rect x="3481.95" y="662.133" width="81.1253" height="330.014" transform="rotate(180 3481.95 662.133)" fill="#043C8F"/>
<path fill-rule="evenodd" clip-rule="evenodd" d="M4628.1 644.756C4617.99 606.382 4583.05 578.085 4541.5 578.085C4499.95 578.085 4465.01 606.382 4454.9 644.756L4373.46 644.756C4384.63 561.927 4455.61 498.068 4541.5 498.068C4627.39 498.068 4698.36 561.927 4709.53 644.756L4628.1 644.756ZM4371.94 669.33L4371.94 665.941C4371.93 666.505 4371.93 667.07 4371.93 667.635C4371.93 668.201 4371.93 668.766 4371.94 669.33Z" fill="#043C8F"/>
<rect x="4373.49" y="644.071" width="81.6503" height="227.361" fill="#043C8F"/>
<rect x="4627.89" y="644.578" width="81.6503" height="227.098" fill="#043C8F"/>
<path fill-rule="evenodd" clip-rule="evenodd" d="M1978.51 720.199C1942.54 769.01 1884.66 800.677 1819.38 800.677C1710.29 800.677 1621.85 712.24 1621.85 603.149C1621.85 494.057 1710.29 405.62 1819.38 405.62C1914.42 405.62 1993.78 472.742 2012.65 562.166H2087.34C2067.59 431.922 1955.14 332.109 1819.38 332.109C1669.69 332.109 1548.34 453.458 1548.34 603.149C1548.34 752.84 1669.69 874.189 1819.38 874.189C1927.15 874.189 2020.23 811.29 2063.91 720.199H1978.51Z" fill="#043C8F"/>
<path d="M1586.34 558.144L2087.33 562.084L2086.45 640.161H1586.34V558.144Z" fill="#043C8F"/>
<path d="M2423.5 838.169L2131.59 332.565L2715.41 332.565L2423.5 838.169Z" fill="#043C8F"/>
<rect x="2411.33" y="692.138" width="82.017" height="465.206" rx="41.0085" transform="rotate(28.1545 2411.33 692.138)" fill="#043C8F"/>
<circle cx="4033.84" cy="833.172" r="41.0085" fill="#043C8F"/>
<circle cx="4231.87" cy="555.114" r="41.0085" fill="#043C8F"/>
<rect x="4190.87" y="642.139" width="82.017" height="232.048" fill="#043C8F"/>
</svg>
